<?xml version="1.0" encoding="UTF-8"?>
<svg width="401px" height="400px" viewBox="0 0 401 400" version="1.1" xmlns="http://www.w3.org/2000/svg" xmlns:xlink="http://www.w3.org/1999/xlink">
    <!-- Generator: Sketch 51.2 (57519) - http://www.bohemiancoding.com/sketch -->
    <title>Group 14</title>
    <desc>Created with Sketch.</desc>
    <defs>
        <circle id="path-1" cx="199.589483" cy="199.589483" r="199.589483"></circle>
    </defs>
    <g id="For-Preview" stroke="none" stroke-width="1" fill="none" fill-rule="evenodd">
        <g id="Case-Studies/Case-Study" transform="translate(-250.000000, -1063.000000)">
            <g id="Group-16" transform="translate(250.000000, 1062.403173)">
                <g id="Group-14" transform="translate(0.877676, 0.718323)">
                    <mask id="mask-2" fill="white">
                        <use xlink:href="#path-1"></use>
                    </mask>
                    <use id="Oval-6" fill="#FAFBFF" opacity="0.0974888393" xlink:href="#path-1"></use>
                    <g id="noun_pattern_1762670" mask="url(#mask-2)" fill-rule="nonzero">
                        <g transform="translate(16.990339, 16.990339)" id="Path">
                            <path d="M5.67763519,45.1105248 C4.33729104,43.3332399 4.69156696,40.8060711 6.46885179,39.4657269 L51.8949103,5.19542659 C53.6721951,3.85508244 56.1973957,4.20739008 57.5397081,5.98664319 C58.8800523,7.76392802 58.5257764,10.2910969 56.7484915,11.631441 L11.3224334,45.901741 C10.5961675,46.4489006 9.74393679,46.7146078 8.89957916,46.7146078 C7.67732671,46.7146078 6.47082007,46.1615437 5.67763519,45.1105248 Z" fill="#49E5B9"></path>
                            <path d="M49.706272,363.407847 C50.4994564,364.456898 51.7059635,365.009962 52.9282155,365.009962 C53.7725736,365.009962 54.6248039,364.744255 55.3530381,364.197095 L100.77516,329.924827 C102.552445,328.584483 102.906721,326.055345 101.566377,324.280029 C100.226033,322.502744 97.7028002,322.150436 95.9196109,323.488812 L50.4974886,357.761081 C48.7202037,359.101426 48.3659278,361.630563 49.706272,363.407847 Z" fill="#49E5B9"></path>
                            <path d="M198.478582,99.0588897 C199.32294,99.0588897 200.175171,98.7951508 200.901437,98.2460229 L246.325527,63.9757226 C248.102812,62.6353784 248.457088,60.1062413 247.116744,58.3309247 C245.774431,56.5556082 243.251199,56.1934595 241.471946,57.5397081 L196.047855,91.8100085 C194.27057,93.1503526 193.916295,95.6794897 195.256639,97.4548063 C196.049824,98.5058256 197.25633,99.0588897 198.478582,99.0588897 Z" fill="#49E5B9"></path>
                            <path d="M61.1690694,115.278827 C61.3107796,115.294572 61.450522,115.300477 61.588296,115.300477 C63.6293197,115.300477 65.3790495,113.759377 65.5935831,111.684893 C65.8238625,109.470668 64.2138746,107.490659 61.9996495,107.26038 L5.4001188,101.389239 C3.15046594,101.14715 1.20391625,102.768947 0.97560514,104.983172 C0.745325752,107.197397 2.3553136,109.177406 4.5695387,109.407686 L61.1690694,115.278827 Z" fill="#49E5B9"></path>
                            <path d="M130.496951,157.024351 C128.884995,158.557579 128.822012,161.110335 130.357208,162.722291 L169.589341,203.938369 C170.380558,204.770918 171.443386,205.190145 172.508182,205.190145 C173.508028,205.190145 174.507874,204.822091 175.287281,204.078112 C176.899236,202.544884 176.962219,199.992128 175.427023,198.380173 L136.19489,157.164094 C134.661662,155.55017 132.108906,155.491123 130.496951,157.024351 Z" fill="#49E5B9"></path>
                            <path d="M295.402597,336.512393 L352.00016,342.383534 C352.14187,342.39928 352.281612,342.405184 352.419386,342.405184 C354.46041,342.405184 356.21014,340.864084 356.424673,338.789601 C356.654953,336.575376 355.044965,334.595366 352.83074,334.365087 L296.233177,328.493946 C294.003206,328.232175 292.038943,329.869718 291.808664,332.08788 C291.578384,334.302104 293.188372,336.282113 295.402597,336.512393 Z" fill="#49E5B9"></path>
                            <path d="M242.849686,208.984834 C241.841967,207.004825 239.417145,206.201799 237.431231,207.215423 L186.689064,232.967353 C184.705118,233.975072 183.911933,236.399894 184.919652,238.385808 C185.630172,239.785199 187.047276,240.592161 188.517522,240.592161 C189.129632,240.592161 189.753551,240.452418 190.338107,240.15522 L241.080274,214.40329 C243.06422,213.395571 243.857404,210.970748 242.849686,208.984834 Z" fill="#49E5B9"></path>
                            <path d="M29.9691611,219.495023 C32.0101848,219.495023 33.7599146,217.951954 33.9744481,215.879439 L39.8278751,159.27794 C40.0561863,157.063715 38.4481667,155.081738 36.2339416,154.853427 C33.996098,154.589688 32.037739,156.235103 31.8094279,158.44736 L25.9560013,215.048859 C25.7276902,217.263084 27.3357098,219.245062 29.5499349,219.473373 C29.6916451,219.489119 29.831387,219.495023 29.9691611,219.495023 Z" fill="#49E5B9"></path>
                            <path d="M332.383109,219.12697 L326.529682,275.7265 C326.301371,277.940726 327.909391,279.922703 330.123616,280.151014 C330.265326,280.16676 330.405068,280.172664 330.542842,280.172664 C332.583866,280.172664 334.333596,278.629595 334.548129,276.557081 L340.401556,219.95755 C340.629868,217.743325 339.021848,215.761347 336.807623,215.533036 C334.571748,215.271266 332.61142,216.910776 332.383109,219.12697 Z" fill-opacity="0.636011096" fill="#FFFFFF" opacity="0.483761161"></path>
                            <path d="M9.84825137,271.898351 C7.64189896,272.19555 6.09292565,274.224764 6.39012359,276.431116 C6.66370343,278.456394 8.39375125,279.924671 10.3796652,279.924671 C10.5587715,279.924671 10.7418143,279.912862 10.9228884,279.889244 L67.3177265,272.293959 C69.5240789,271.996761 71.0730522,269.967547 70.7758543,267.761195 C70.4766877,265.552874 68.4179507,264.007837 66.2430895,264.303067 L9.84825137,271.898351 Z" fill-opacity="0.636011096" fill="#FFFFFF" opacity="0.483761161"></path>
                            <path d="M120.32726,20.9508681 L174.33664,38.8654254 C174.757835,39.0051677 175.186902,39.0720863 175.606129,39.0720863 C177.296813,39.0720863 178.871373,37.9994172 179.43231,36.3087332 C180.132989,34.1948862 178.987497,31.9137425 176.875618,31.213063 L122.866238,13.298506 C120.738614,12.5899542 118.471248,13.7433194 117.770568,15.8551978 C117.069889,17.9690449 118.215382,20.250189 120.32726,20.9508681 Z" fill-opacity="0.636011096" fill="#FFFFFF" opacity="0.483761161"></path>
                            <path d="M177.733753,308.23723 C176.192653,306.627242 173.641865,306.570165 172.033846,308.107329 C170.423858,309.646461 170.36678,312.197248 171.903944,313.807236 L211.218742,354.942619 C212.011926,355.771231 213.072786,356.188489 214.133646,356.188489 C215.13546,356.188489 216.137274,355.818467 216.918649,355.07252 C218.528637,353.533387 218.585715,350.9826 217.048551,349.372612 L177.733753,308.23723 Z" fill-opacity="0.636011096" fill="#FFFFFF" opacity="0.483761161"></path>
                            <path d="M253.708246,182.965229 C255.615432,182.965229 257.310052,181.607171 257.668265,179.664557 L267.975729,123.702723 C268.37921,121.514085 266.930615,119.412047 264.741976,119.008566 C262.551369,118.59918 260.449331,120.051712 260.047818,122.242319 L249.740355,178.204153 C249.336873,180.392792 250.785469,182.494829 252.974107,182.89831 C253.220132,182.943579 253.466157,182.965229 253.708246,182.965229 Z" fill-opacity="0.636011096" fill="#FFFFFF" opacity="0.483761161"></path>
                            <path d="M138.003665,277.793111 C138.712217,278.298938 139.529021,278.541027 140.337951,278.541027 C141.597599,278.541027 142.837565,277.952535 143.624845,276.848374 C144.915984,275.035662 144.492821,272.518334 142.680109,271.227195 L96.334901,238.212606 C94.5221888,236.917531 92.0068288,237.342662 90.7137216,239.157342 C89.4225823,240.970055 89.8457455,243.487383 91.6584577,244.778522 L138.003665,277.793111 Z" fill-opacity="0.636011096" fill="#FFFFFF" opacity="0.483761161"></path>
                            <path d="M119.067612,117.158458 C119.754514,118.614926 121.203109,119.469125 122.714687,119.469125 C123.29137,119.469125 123.875925,119.345129 124.432926,119.083358 C126.446394,118.134685 127.308466,115.731513 126.357826,113.718044 L102.084013,62.2535478 C101.135341,60.2420475 98.7380733,59.3799758 96.7186998,60.328648 C94.7052312,61.2773206 93.8431595,63.6804929 94.7937999,65.6939615 L119.067612,117.158458 Z" fill-opacity="0.636011096" fill="#FFFFFF" opacity="0.483761161"></path>
                            <path d="M224.665485,20.287585 C224.878051,20.287585 225.094553,20.2718396 225.311055,20.2364118 L281.491359,11.2063096 C283.689838,10.854002 285.18567,8.78542361 284.831394,6.5869439 C284.479087,4.38649632 282.406572,2.87885478 280.212029,3.24690823 L224.031725,12.2770105 C221.833245,12.6293181 220.337413,14.6978965 220.691689,16.8963762 C221.010537,18.8783536 222.722872,20.287585 224.665485,20.287585 Z" fill-opacity="0.636011096" fill="#FFFFFF" opacity="0.483761161"></path>
                            <path d="M315.342432,120.825215 C313.681271,122.305302 313.535625,124.854121 315.017679,126.515282 L352.893723,168.981167 C353.688875,169.87473 354.793036,170.329384 355.9031,170.329384 C356.857677,170.329384 357.816191,169.992822 358.583789,169.305921 C360.24495,167.825834 360.390597,165.277015 358.908542,163.615854 L321.032499,121.149968 C319.552413,119.486839 317.001625,119.335288 315.342432,120.825215 Z" fill="#49E5B9"></path>
                            <path d="M313.580893,65.4006997 C314.206781,65.7530074 314.88581,65.9203044 315.556966,65.9203044 C316.96423,65.9203044 318.332129,65.1822292 319.072172,63.8694397 L347.014709,14.3003197 C348.10706,12.3596744 347.422126,9.90139239 345.483449,8.8090413 C343.550677,7.71865849 341.08649,8.40359223 339.992171,10.3403009 L312.049634,59.9094214 C310.957283,61.8500666 311.642216,64.3083487 313.580893,65.4006997 Z" fill-opacity="0.636011096" fill="#FFFFFF" opacity="0.483761161"></path>
                            <path d="M237.9902,324.56345 C238.616087,324.915758 239.295116,325.083055 239.966273,325.083055 C241.373536,325.083055 242.741435,324.34498 243.481478,323.03219 L271.424015,273.461102 C272.516366,271.520457 271.831432,269.062175 269.892755,267.969823 C267.959983,266.881409 265.495796,267.562406 264.401477,269.501083 L236.45894,319.072171 C235.366589,321.012817 236.051523,323.471099 237.9902,324.56345 Z" fill-opacity="0.636011096" fill="#FFFFFF" opacity="0.483761161"></path>
                            <path d="M93.2330174,197.553528 C93.3137134,197.795617 93.4357421,198.035737 93.5971343,198.238462 C93.7171946,198.480551 93.9199194,198.681307 94.0813119,198.8427 C94.4828249,199.246181 94.8863057,199.527633 95.4098468,199.730358 C95.8940241,199.931114 96.4175653,200.051174 96.9430748,200.051174 C97.4666159,200.051174 97.9901571,199.931114 98.4743344,199.730358 C98.9585117,199.527633 99.4013568,199.24618 99.8048376,198.8427 C99.9662301,198.681307 100.127622,198.480551 100.287047,198.238462 C100.448439,198.035738 100.570467,197.795617 100.651163,197.553529 C100.771224,197.31144 100.85192,197.069351 100.893252,196.787899 C100.932616,196.54581 100.973949,196.262389 100.973949,196.0203 C100.973949,195.496759 100.85192,194.973218 100.651164,194.449677 C100.448439,193.965499 100.166987,193.522654 99.804838,193.158537 C98.635727,192.030759 96.8623787,191.66861 95.4098473,192.272847 C94.8863061,192.473604 94.4828249,192.796388 94.0813123,193.158537 C93.7171955,193.522654 93.4357429,193.965499 93.2330182,194.449677 C93.0322613,194.973218 92.9122009,195.496759 92.9122009,196.0203 C92.9122009,196.262389 92.9515648,196.54581 92.992897,196.787898 C93.0322613,197.069351 93.1129574,197.31144 93.2330174,197.553528 Z" fill-opacity="0.5" fill="#49E5B9"></path>
                            <path d="M58.2049599,149.425131 C58.3663525,149.625887 58.5277446,149.826644 58.6891372,150.029368 C59.0926184,150.391517 59.5354631,150.67297 60.0196404,150.915058 C60.5038176,151.117783 61.0273588,151.198479 61.5509,151.198479 C62.5999506,151.198479 63.647033,150.794998 64.4126628,150.029368 C64.5740554,149.826643 64.7767797,149.625887 64.8968401,149.425131 C65.0582327,149.183042 65.1782926,148.980317 65.2589891,148.738229 C65.3810174,148.498108 65.4617139,148.214688 65.5010778,147.972599 C65.5424099,147.691146 65.5817739,147.449058 65.5817739,147.167605 C65.5817739,146.925517 65.5424099,146.642096 65.5010778,146.401975 C65.4617139,146.118555 65.3810174,145.876466 65.2589891,145.634377 C65.1782931,145.394257 65.0582327,145.152168 64.8968401,144.949444 C64.7767797,144.707355 64.5740554,144.506598 64.4126628,144.345206 C63.284884,143.217427 61.5115357,142.853311 60.01964,143.459516 C59.5354627,143.660273 59.0926176,143.941725 58.6891368,144.345206 C57.9628709,145.071472 57.5200258,146.118555 57.5200258,147.167605 C57.5200258,147.449058 57.5613579,147.691146 57.6007218,147.972599 C57.6420548,148.214688 57.7227509,148.498109 57.8428113,148.738229 C57.9235074,148.980318 58.0435678,149.183042 58.2049599,149.425131 Z" fill-opacity="0.5" fill="#49E5B9"></path>
                            <path d="M96.2168088,283.571746 C96.7816822,283.571746 97.2638912,283.451686 97.7894007,283.248962 C98.2716097,283.048205 98.716423,282.764784 99.0785717,282.363271 C99.8442015,281.597642 100.247683,280.589923 100.247683,279.540872 C100.247683,278.975999 100.166987,278.49379 99.9662301,277.968281 C99.7635054,277.486072 99.4407207,277.041258 99.0785721,276.67911 C98.716423,276.275628 98.2716101,275.994176 97.7894011,275.791452 C96.2975053,275.187214 94.524157,275.551331 93.3944103,276.67911 C92.9928974,277.041259 92.7094766,277.486072 92.5087201,277.968281 C92.3059954,278.452458 92.2252993,278.975999 92.2252993,279.540872 C92.2252993,280.064414 92.3059954,280.589923 92.5087201,281.072132 C92.7094762,281.556309 92.992897,281.999154 93.3944099,282.363271 C94.1206758,283.128901 95.1697265,283.571746 96.2168088,283.571746 Z" fill-opacity="0.5" fill="#49E5B9"></path>
                            <path d="M186.830774,280.02505 C187.879825,280.02505 188.926907,279.582205 189.692537,278.814607 C190.418803,278.090309 190.861648,277.041258 190.861648,275.994176 C190.861648,274.905761 190.418803,273.898043 189.692537,273.132413 C189.289056,272.768296 188.846211,272.447479 188.362034,272.244755 C186.872106,271.640518 185.09679,272.002666 183.969011,273.132413 C183.203381,273.898043 182.7999,274.905761 182.7999,275.994176 C182.7999,277.041258 183.203381,278.090309 183.969011,278.814607 C184.695277,279.582205 185.74236,280.02505 186.830774,280.02505 Z" fill-opacity="0.5" fill="#49E5B9"></path>
                            <path d="M19.1066647,325.291684 C20.1537471,325.291684 21.2027977,324.888203 21.9270954,324.122573 C22.6927252,323.356943 23.1375386,322.349225 23.1375386,321.26081 C23.1375386,320.211759 22.6927252,319.164677 21.9270954,318.438411 C20.8386808,317.310632 19.0259682,316.946515 17.5340725,317.552721 C17.0498952,317.753477 16.6070501,318.03493 16.2449015,318.438411 C15.4792717,319.164677 15.0757905,320.211759 15.0757905,321.26081 C15.0757905,322.349225 15.4792717,323.396307 16.2449015,324.122573 C16.6070505,324.484722 17.0498952,324.807507 17.5340725,325.008263 C18.0576141,325.210988 18.5417914,325.291684 19.1066647,325.291684 Z" fill-opacity="0.5" fill="#49E5B9"></path>
                            <path d="M62.2358338,75.700291 C62.5999506,76.101804 63.0427957,76.3852248 63.5663369,76.5859812 C64.0505142,76.788706 64.5740554,76.908766 65.0975966,76.908766 C66.1466472,76.908766 67.1937296,76.4659208 67.9613277,75.700291 C68.3234767,75.3361741 68.6049292,74.893329 68.8076536,74.4091518 C69.00841,73.9269427 69.12847,73.4014333 69.12847,72.8778921 C69.12847,72.5964396 69.0891061,72.3543509 69.0477739,72.0709301 C69.00841,71.8308098 68.9277135,71.5887211 68.8076536,71.3053003 C68.7269575,71.0632117 68.6049288,70.8624552 68.4435367,70.6203666 C68.2821441,70.4196101 68.120752,70.2168854 67.9613277,70.0161293 C66.8315809,68.8883504 65.0169001,68.5242336 63.5663369,69.1284712 C63.0427957,69.331196 62.5999506,69.6539807 62.2358338,70.0161293 C61.5115361,70.7423952 61.0667227,71.7894776 61.0667227,72.8778921 C61.0667227,73.4014333 61.188751,73.9269427 61.3895074,74.4091518 C61.5922326,74.893329 61.8736851,75.3361737 62.2358338,75.700291 Z" fill-opacity="0.5" fill="#49E5B9"></path>
                            <path d="M140.837874,346.776557 C141.603503,346.010927 142.006985,345.003208 142.006985,343.914794 C142.006985,342.865743 141.603503,341.818661 140.837874,341.092395 C139.710095,339.964616 137.936746,339.561135 136.444851,340.204737 C135.960673,340.407462 135.517828,340.688914 135.15568,341.092395 C134.39005,341.818661 133.945237,342.865743 133.945237,343.914794 C133.945237,345.003208 134.39005,346.010927 135.15568,346.776557 C135.879977,347.542187 136.929028,347.945668 137.97611,347.945668 C139.064525,347.945667 140.072244,347.542187 140.837874,346.776557 Z" fill-opacity="0.5" fill="#49E5B9"></path>
                            <path d="M8.58466674,175.665175 C9.1101762,175.464419 9.5530213,175.180998 9.91516992,174.818849 C10.6414358,174.053219 11.0842809,173.004169 11.0842809,171.957086 C11.0842809,171.433545 11.0035849,170.908036 10.7614962,170.425827 C10.5607398,169.900317 10.2792872,169.457472 9.91517032,169.095323 C9.5530213,168.733174 9.1101766,168.449753 8.58466714,168.207665 C7.13410358,167.603427 5.3213914,167.965576 4.19164428,169.095323 C3.82949526,169.457472 3.54607485,169.900316 3.34531838,170.425826 C3.14456192,170.908035 3.02253366,171.433544 3.02253366,171.957085 C3.02253366,173.004168 3.46734704,174.053218 4.19164469,174.818848 C4.9572741,175.545115 6.00632474,175.98796 7.0534071,175.98796 C7.57694828,175.98796 8.10245774,175.865931 8.58466674,175.665175 Z" fill-opacity="0.5" fill="#49E5B9"></path>
                            <path d="M185.903752,149.988036 C185.903752,148.940954 185.460907,147.891903 184.734641,147.167606 C183.242745,145.67571 180.50301,145.67571 179.011115,147.167606 C178.284849,147.891903 177.842004,148.940954 177.842004,149.988036 C177.842004,150.55291 177.962064,151.037087 178.164788,151.560628 C178.365545,152.044805 178.648966,152.48765 179.011114,152.849799 C179.776744,153.617397 180.825795,154.060242 181.872877,154.060242 C182.919959,154.060242 183.96901,153.617397 184.73464,152.849799 C185.460907,152.125501 185.903752,151.076451 185.903752,149.988036 Z" fill-opacity="0.5" fill="#49E5B9"></path>
                            <path d="M277.887584,216.538787 C277.887584,215.450372 277.486071,214.442654 276.718473,213.677024 C275.228546,212.185128 272.528175,212.185128 271.036279,213.677024 C270.270649,214.442654 269.825836,215.489736 269.825836,216.538787 C269.825836,216.780875 269.867168,217.062328 269.906532,217.304417 C269.987228,217.585869 270.02856,217.827958 270.148621,218.070046 C270.229317,218.312135 270.390709,218.554224 270.512738,218.75498 C270.672162,218.997069 270.833554,219.197825 271.036279,219.40055 C271.197671,219.561942 271.398428,219.723334 271.640516,219.884727 C271.841273,220.046119 272.083361,220.166179 272.32545,220.246876 C272.567539,220.366936 272.809627,220.447632 273.09108,220.488965 C273.333168,220.528328 273.614621,220.569661 273.85671,220.569661 C274.945124,220.569661 275.994175,220.126816 276.718472,219.40055 C277.486072,218.63492 277.887584,217.585869 277.887584,216.538787 Z" fill-opacity="0.5" fill="#49E5B9"></path>
                            <path d="M267.328191,344.76112 C267.408887,345.003208 267.528947,345.243329 267.69034,345.446054 C267.851732,345.688142 268.013124,345.888899 268.174517,346.050291 C268.375273,346.251047 268.57603,346.41244 268.818118,346.573832 C269.020843,346.69586 269.262931,346.857253 269.50502,346.937949 C269.74514,347.058009 269.987229,347.099341 270.27065,347.178069 C270.512738,347.219401 270.794191,347.258765 271.03628,347.258765 C271.559821,347.258765 272.083362,347.138705 272.567539,346.937949 C273.09108,346.735224 273.535894,346.453772 273.898042,346.050291 C274.62234,345.324025 275.067154,344.276943 275.067154,343.227892 C275.067154,342.139477 274.62234,341.092395 273.898042,340.366129 C273.535893,340.00398 273.09108,339.681195 272.567539,339.480439 C271.116976,338.876202 269.302295,339.23835 268.174516,340.366129 C267.448251,341.131759 267.005405,342.139477 267.005405,343.227892 C267.005405,343.469981 267.044769,343.753401 267.086102,343.99549 C267.125466,344.276943 267.206162,344.519031 267.328191,344.76112 Z" fill-opacity="0.5" fill="#49E5B9"></path>
                            <path d="M11.1649774,11.4877621 C11.6885186,11.6885186 12.2140281,11.7692147 12.7375692,11.7692147 C13.2611104,11.7692147 13.7846516,11.6885186 14.2688289,11.4877621 C14.7530062,11.2870057 15.1958513,11.0035849 15.5599682,10.6001041 C16.325598,9.87580602 16.7684431,8.82675538 16.7684431,7.77967302 C16.7684431,6.69125848 16.325598,5.64220784 15.5599682,4.9179102 C15.1958513,4.514429 14.7530062,4.23297646 14.2688289,4.03025172 C13.2611104,3.62677052 12.1726959,3.62677052 11.1649774,4.03025172 C10.6808001,4.23297646 10.237955,4.514429 9.87580602,4.9179102 C9.1101762,5.64220784 8.7066954,6.69125848 8.7066954,7.77967302 C8.7066954,8.82675538 9.1101766,9.87580602 9.87580642,10.6001037 C10.237955,11.0035849 10.6808001,11.2870057 11.1649774,11.4877621 Z" fill-opacity="0.5" fill="#49E5B9"></path>
                            <path d="M345.888898,81.2210923 C345.688142,81.7466018 345.566114,82.2288108 345.566114,82.7936841 C345.566114,83.8427348 346.010927,84.8898171 346.735225,85.6160831 C347.099341,86.0195643 347.542187,86.3010168 348.065728,86.5017733 C348.549905,86.704498 349.073446,86.7851941 349.596987,86.7851941 C350.646038,86.7851941 351.69312,86.3817129 352.45875,85.6160831 C353.185016,84.8898171 353.627861,83.8427348 353.627861,82.7936841 C353.627861,82.2288108 353.507801,81.7466018 353.305076,81.2210923 C353.10432,80.7388833 352.822867,80.29407 352.458751,79.9319213 C351.330972,78.8041425 349.516291,78.4400256 348.065728,79.0462311 C347.542187,79.2469876 347.099341,79.5697723 346.735225,79.9319213 C346.373076,80.29407 346.091623,80.7388833 345.888898,81.2210923 Z" fill-opacity="0.5" fill="#49E5B9"></path>
                            <path d="M298.606827,292.279063 C299.010308,292.641212 299.453153,292.922665 299.93733,293.164754 C300.421508,293.367478 300.945049,293.448174 301.46859,293.448174 C301.752011,293.448174 301.992131,293.448174 302.275552,293.367478 C302.517641,293.326146 302.759729,293.24545 302.99985,293.164754 C303.241938,293.044693 303.484027,292.922665 303.726115,292.761272 C303.926872,292.641212 304.129597,292.47982 304.330353,292.279063 C304.69447,291.914947 304.975922,291.472101 305.176679,290.987924 C305.418767,290.464383 305.499463,289.940842 305.499463,289.417301 C305.499463,288.36825 305.056618,287.321168 304.330352,286.555538 C303.202574,285.467123 301.429225,285.103006 299.937329,285.707244 C299.453152,285.909968 299.010307,286.191421 298.606826,286.555538 C297.88056,287.321168 297.437715,288.36825 297.437715,289.417301 C297.437715,289.940842 297.559744,290.464383 297.7605,290.987924 C297.961257,291.472101 298.244678,291.914947 298.606827,292.279063 Z" fill-opacity="0.5" fill="#49E5B9"></path>
                            <path d="M279.340116,77.109522 C279.340116,76.0624396 278.895303,75.0153573 278.129673,74.2477592 C276.637777,72.7578317 273.937406,72.7578317 272.447479,74.2477592 C272.043998,74.6512404 271.760577,75.0940851 271.559821,75.5782624 C271.359065,76.0624396 271.278368,76.5859808 271.278368,77.109522 C271.278368,77.6350315 271.359064,78.1585726 271.559821,78.6427499 C271.760577,79.1662911 272.043998,79.6091362 272.447479,79.9732531 C273.171777,80.6975512 274.220828,81.1403958 275.309242,81.1403958 C275.551331,81.1403958 275.832783,81.1010319 276.074872,81.061668 C276.316961,81.0203359 276.598413,80.9396398 276.840502,80.8195794 C277.08259,80.7388833 277.324679,80.6168547 277.525436,80.4554625 C277.726192,80.3354021 277.968281,80.1326778 278.129673,79.9732535 C278.895303,79.2056554 279.340116,78.1585731 279.340116,77.109522 Z" fill-opacity="0.5" fill="#49E5B9"></path>
                            <path d="M363.947134,239.755675 C363.827074,239.513587 363.705046,239.273466 363.584985,239.070742 C363.423593,238.828653 363.262201,238.627896 363.061444,238.466504 C362.134422,237.49815 360.723223,237.096637 359.432083,237.336758 C359.150631,237.417454 358.908542,237.49815 358.666454,237.578846 C358.424365,237.700874 358.184244,237.820935 357.98152,237.942963 C357.739431,238.104356 357.538675,238.265748 357.377283,238.466504 C357.176526,238.627897 357.015133,238.828653 356.853741,239.070742 C356.731713,239.273466 356.611653,239.513587 356.489624,239.755675 C356.408928,239.997764 356.328232,240.281185 356.247536,240.521305 C356.208171,240.763394 356.168808,241.046815 356.168808,241.288903 C356.168808,242.375349 356.611653,243.383068 357.377283,244.150666 C357.538675,244.351422 357.739432,244.512815 357.98152,244.674207 C358.184244,244.794268 358.424365,244.916296 358.666454,245.036356 C358.908542,245.117052 359.150631,245.197749 359.432083,245.239081 C359.674172,245.319777 359.957593,245.319777 360.199681,245.319777 C360.723223,245.319777 361.246764,245.239081 361.770305,245.036356 C362.254482,244.8356 362.697327,244.512815 363.061444,244.150666 C363.827074,243.383068 364.230555,242.375349 364.230555,241.288903 C364.230555,241.046815 364.230555,240.763394 364.149859,240.521305 C364.108527,240.281185 364.027831,239.997764 363.947134,239.755675 Z" fill-opacity="0.5" fill="#49E5B9"></path>
                            <path d="M304.81453,156.518524 C304.93459,156.760613 305.056619,157.002702 305.218011,157.203458 C305.338072,157.406183 305.499464,157.648271 305.702189,157.807695 C306.426486,158.575293 307.475537,158.976806 308.563951,158.976806 C309.087493,158.976806 309.611034,158.89611 310.095211,158.695354 C310.579388,158.494597 311.022233,158.171813 311.384382,157.807696 C311.587107,157.648271 311.748499,157.406182 311.907923,157.203458 C312.029951,157.002701 312.191344,156.760613 312.27204,156.518524 C312.3921,156.276435 312.433433,155.994983 312.514129,155.752894 C312.553493,155.471442 312.594825,155.229353 312.594825,154.945932 C312.594825,154.422391 312.472797,153.89885 312.27204,153.414672 C312.069316,152.930495 311.787863,152.48765 311.384382,152.125501 C311.022233,151.72202 310.579389,151.440568 310.095211,151.237843 C308.603316,150.633606 306.829967,150.995755 305.702189,152.125501 C305.338072,152.48765 305.015286,152.930495 304.81453,153.414672 C304.613774,153.89885 304.533077,154.422391 304.533077,154.945932 C304.533077,155.229353 304.533077,155.471442 304.613774,155.752894 C304.653138,155.994983 304.733834,156.276436 304.81453,156.518524 Z" fill-opacity="0.5" fill="#49E5B9"></path>
                            <path d="M312.069316,7.0534071 C312.27204,7.25613184 312.472797,7.417524 312.675521,7.57694828 C312.915642,7.69897654 313.118366,7.8603691 313.360455,7.94106518 C313.602544,8.06112556 313.883996,8.10245774 314.126085,8.18315422 C314.407537,8.22251812 314.649626,8.2638503 314.931079,8.2638503 C315.456588,8.2638503 315.980129,8.14182204 316.464306,7.94106558 C316.946515,7.73834084 317.391329,7.4568883 317.753477,7.0534075 C318.156959,6.69125848 318.438411,6.24841338 318.641136,5.7642361 C318.841892,5.28005882 318.961952,4.75651764 318.961952,4.23297646 C318.961952,3.94955564 318.922588,3.707467 318.883225,3.42601446 C318.802528,3.18392582 318.761196,2.90247328 318.641136,2.66038464 C318.56044,2.418296 318.399047,2.21753954 318.277019,1.9754509 C318.115626,1.77272616 317.954234,1.53063752 317.753478,1.37121364 C317.391329,1.00709675 316.946516,0.684311624 316.464307,0.483555564 C314.972411,-0.120681695 313.199063,0.241466925 312.069316,1.37121364 C311.86856,1.53063793 311.707167,1.77272657 311.545775,1.9754509 C311.425714,2.21753954 311.303686,2.418296 311.183626,2.66038464 C311.102929,2.90247328 311.022233,3.18392582 310.980901,3.42601446 C310.900205,3.707467 310.900205,3.94955564 310.900205,4.23297646 C310.900205,4.75651764 310.980901,5.28005882 311.183626,5.7642361 C311.384382,6.24841338 311.707167,6.69125848 312.069316,7.0534071 Z" fill-opacity="0.5" fill="#49E5B9"></path>
                            <path d="M184.008375,8.94878404 C185.057426,8.94878404 186.104508,8.54530284 186.830774,7.77967302 C187.596404,7.0140432 188.039249,6.00632474 188.039249,4.9179102 C188.039249,3.86885956 187.596404,2.8217772 186.830774,2.05614738 C185.338878,0.564251643 182.638508,0.564251643 181.146612,2.05614738 C180.784463,2.45962858 180.461679,2.90247328 180.260922,3.38665056 C180.058197,3.86885956 179.977501,4.39436902 179.977501,4.9179102 C179.977501,6.00632474 180.380983,7.0534075 181.146612,7.77967302 C181.872878,8.54530284 182.91996,8.94878404 184.008375,8.94878404 Z" fill-opacity="0.5" fill="#49E5B9"></path>
                            <path d="M150.029368,74.7732686 C151.076451,74.7732686 152.125501,74.3284553 152.849799,73.6041576 C153.617397,72.8385278 154.060242,71.7894772 154.060242,70.7423948 C154.060242,70.2168854 153.938214,69.6933442 153.737458,69.2091669 C153.536701,68.7269579 153.25328,68.2821445 152.849799,67.880632 C151.761385,66.7922175 149.948672,66.4281002 148.498109,67.0323378 C147.9726,67.2350626 147.529755,67.5165151 147.167606,67.880632 C146.803488,68.2821445 146.522036,68.7269579 146.321279,69.2091669 C146.079191,69.6933442 145.998495,70.2168854 145.998495,70.7423948 C145.998495,71.8308093 146.44134,72.8385278 147.167606,73.6041576 C147.529755,73.9663067 147.972599,74.2477592 148.498109,74.4504835 C148.980318,74.6925726 149.505827,74.7732686 150.029368,74.7732686 Z" fill-opacity="0.5" fill="#49E5B9"></path>
                        </g>
                    </g>
                </g>
            </g>
        </g>
    </g>
</svg>